#!OML:ASF H:\MichaelJackson\Top Level 1\Subject 1\Session 1\male.ASF
:FULLY-SPECIFIED
:DEGREES
136
root 7.84483 16.5282 -26.276 -11.2051 8.68895 5.81909
lowerback 17.526 -3.01121 -9.34563
upperback 5.90948 -5.5907 -2.02473
thorax -2.71913 -2.82001 4.15663
lowerneck -12.6811 -0.436976 -0.285811
upperneck 0.48839 -0.677874 3.07016
head 2.37017 -0.231852 1.00186
rclavicle 7.93151e-014 1.05356e-014
rhumerus -43.6081 -26.748 -56.778
rradius 80.714
rwrist -40.9245
rhand -16.2211 -22.734
rfingers 7.12502
rthumb 9.98685 -52.4771
lclavicle 7.93151e-014 1.05356e-014
lhumerus -41.8649 -21.5114 89.9867
lradius 54.2277
lwrist 18.4892
lhand 8.54003 6.35804
lfingers 7.12502
lthumb 33.7403 33.1991
rfemur -101.559 -25.5204 61.1244
rtibia 86.9822
rfoot -0.595181 26.5796
rtoes -46.8438
lfemur -4.60106 13.0884 -22.0335
ltibia 35.3217
lfoot -17.7265 -11.1506
ltoes 30.0943
137
root 7.80632 16.5104 -26.2724 -10.9226 9.68073 5.60186
lowerback 17.4944 -3.36269 -9.23626
upperback 5.83554 -6.03491 -2.09652
thorax -2.74322 -3.03328 4.09525
lowerneck -12.5916 -0.540508 -0.490144
upperneck 0.374015 -0.793095 3.33226
head 2.32165 -0.282922 1.11547
rclavicle 7.95139e-015 -4.77083e-015
rhumerus -44.4054 -27.4451 -57.351
rradius 81.9812
rwrist -41.0829
rhand -22.7494 -24.2282
rfingers 7.12502
rthumb 3.68512 -54.1761
lclavicle 7.95139e-015 -4.77083e-015
lhumerus -41.3832 -22.5177 90.0049
lradius 53.7106
lwrist 18.4851
lhand 9.34661 6.69081
lfingers 7.12502
lthumb 34.5064 33.3607
rfemur -102.228 -25.3905 60.0933
rtibia 91.1278
rfoot 8.51296 28.7304
rtoes -45.8157
lfemur -5.24608 13.5111 -21.6652
ltibia 35.8123
lfoot -17.7883 -12.347
ltoes 30.8672
138
root 7.76371 16.4948 -26.2696 -10.5279 10.767 5.30759
lowerback 17.374 -3.72 -9.06556
upperback 5.71054 -6.46942 -2.13555
thorax -2.78239 -3.23966 4.02808
lowerneck -12.4898 -0.676045 -0.665731
upperneck 0.309862 -0.956882 3.60684
head 2.28983 -0.35732 1.22576
rclavicle 3.52843e-015 1.63003e-014
rhumerus -45.2558 -27.8304 -58.0264
rradius 83.1308
rwrist -40.0987
rhand -29.2885 -26.9024
rfingers 7.12502
rthumb -2.63029 -56.8659
lclavicle 3.52843e-015 1.63003e-014
lhumerus -40.799 -23.5599 90.0689
lradius 53.0282
lwrist 18.2076
lhand 10.3167 7.08611
lfingers 7.12502
lthumb 35.4266 33.5415
rfemur -102.687 -25.3926 58.8183
rtibia 95.0935
rfoot 20.1118 27.0097
rtoes -36.5695
lfemur -6.05405 13.9126 -21.2497
ltibia 36.301
lfoot -17.8292 -13.5095
ltoes 31.4387
139
root 7.71756 16.4805 -26.2669 -10.0465 11.9082 4.97098
lowerback 17.1802 -4.06549 -8.86558
upperback 5.54475 -6.87863 -2.15319
thorax -2.83323 -3.43224 3.95824
lowerneck -12.3761 -0.838353 -0.802575
upperneck 0.284744 -1.1632 3.884
head 2.27077 -0.452478 1.32811
rclavicle 5.35725e-014 -1.86858e-014
rhumerus -46.1521 -27.9074 -58.8192
rradius 84.1539
rwrist -38.0524
rhand -35.3168 -31.2119
rfingers 7.12502
rthumb -8.45048 -61.0228
lclavicle 5.35725e-014 -1.86858e-014
lhumerus -40.1384 -24.6203 90.1707
lradius 52.2274
lwrist 17.6404
lhand 11.4487 7.55993
lfingers 7.12502
lthumb 36.499 33.7523
rfemur -102.903 -25.5352 57.3636
rtibia 98.8692
rfoot 29.3556 22.314
rtoes -17.0937
lfemur -6.98791 14.2862 -20.8264
ltibia 36.7829
lfoot -17.8927 -14.5121
ltoes 31.654
140
root 7.66853 16.4668 -26.2639 -9.50807 13.0616 4.62493
lowerback 16.9313 -4.38086 -8.66739
upperback 5.3522 -7.24562 -2.15815
thorax -2.88909 -3.60363 3.89116
lowerneck -12.2487 -1.02304 -0.899888
upperneck 0.278331 -1.40535 4.15324
head 2.25702 -0.565661 1.41921
rclavicle 4.60683e-014 -4.77083e-015
rhumerus -47.0892 -27.6854 -59.7363
rradius 85.0547
rwrist -35.1305
rhand -40.288 -37.3736
rfingers 7.12502
rthumb -13.2454 -66.9328
lclavicle 4.60683e-014 -4.77083e-015
lhumerus -39.4306 -25.6808 90.3074
lradius 51.3607
lwrist 16.7945
lhand 12.7323 8.10956
lfingers 7.12502
lthumb 37.713 33.9863
rfemur -102.833 -25.8237 55.7655
rtibia 102.432
rfoot 34.767 18.0602
rtoes 2.7808
lfemur -7.99638 14.6399 -20.4238
ltibia 37.2442
lfoot -18.0222 -15.2342
ltoes 31.3585
141
root 7.61732 16.4543 -26.2603 -8.94031 14.1842 4.29462
lowerback 16.645 -4.65099 -8.49605
upperback 5.14825 -7.55574 -2.15459
thorax -2.94093 -3.74757 3.83428
lowerneck -12.1128 -1.22585 -0.962151
upperneck 0.269253 -1.67575 4.40131
head 2.24186 -0.693758 1.49582
rclavicle 3.65267e-014 9.93923e-015
rhumerus -48.0572 -27.1809 -60.781
rradius 85.8559
rwrist -31.6045
rhand -43.7941 -44.9784
rfingers 7.12502
rthumb -16.623 -74.2865
lclavicle 3.65267e-014 9.93923e-015
lhumerus -38.7025 -26.7199 90.479
lradius 50.4783
lwrist 15.7112
lhand 14.146 8.71447
lfingers 7.12502
lthumb 39.0472 34.221
rfemur -102.423 -26.2576 54.0322
rtibia 105.747
rfoot 37.2901 16.0035
rtoes 12.7677
lfemur -9.02603 14.9952 -20.056
ltibia 37.6681
lfoot -18.2535 -15.559
ltoes 30.3971
142
root 7.56463 16.4434 -26.2558 -8.36422 15.2396 3.99583
lowerback 16.3339 -4.86596 -8.36823
upperback 4.9458 -7.79879 -2.14158
thorax -2.97929 -3.85981 3.79641
lowerneck -11.9763 -1.44294 -1.00066
upperneck 0.239616 -1.96639 4.61608
head 2.22026 -0.833377 1.5563
rclavicle 6.24184e-014 -3.1408e-014
rhumerus -49.0413 -26.4194 -61.9517
rradius 86.5969
rwrist -27.7792
rhand -45.739 -52.8073
rfingers 7.12502
rthumb -18.4947 -81.9481
lclavicle 6.24184e-014 -3.1408e-014
lhumerus -37.9782 -27.7174 90.6911
lradius 49.6216
lwrist 14.4614
lhand 15.6541 9.33893
lfingers 7.12502
lthumb 40.467 34.4224
rfemur -101.617 -26.8304 52.1452
rtibia 108.767
rfoot 37.6264 16.3882
rtoes 12.6621
lfemur -10.0323 15.3859 -19.7266
ltibia 38.0409
lfoot -18.6007 -15.3711
ltoes 28.6044
143
root 7.51117 16.4351 -26.2503 -7.79152 16.2034 3.73237
lowerback 16.0024 -5.02391 -8.2893
upperback 4.75352 -7.97238 -2.11373
thorax -2.99493 -3.93974 3.78567
lowerneck -11.8522 -1.66991 -1.02901
upperneck 0.1814 -2.26867 4.78754
head 2.19145 -0.980578 1.60023
rclavicle -1.14301e-014 -4.77083e-015
rhumerus -50.022 -25.4358 -63.2423
rradius 87.3248
rwrist -23.9148
rhand -46.3753 -59.2906
rfingers 7.12502
rthumb -19.1066 -88.3721
lclavicle -1.14301e-014 -4.77083e-015
lhumerus -37.2795 -28.655 90.9535
lradius 48.8195
lwrist 13.1353
lhand 17.1975 9.92497
lfingers 7.12502
lthumb 41.916 34.5431
rfemur -100.36 -27.5249 50.0674
rtibia 111.436
rfoot 36.0498 18.6391
rtoes 4.89479
lfemur -10.9879 15.8514 -19.4298
ltibia 38.3529
lfoot -19.038 -14.562
ltoes 25.8122
144
root 7.45764 16.4299 -26.2436 -7.22517 17.0665 3.49555
lowerback 15.6464 -5.13134 -8.24989
upperback 4.57351 -8.08227 -2.06303
thorax -2.98228 -3.99048 3.80589
lowerneck -11.7524 -1.90189 -1.06112
upperneck 0.0987205 -2.57405 4.90958
head 2.1586 -1.13111 1.62855
rclavicle -4.36332e-014 -1.90833e-014
rhumerus -50.9797 -24.2812 -64.6333
rradius 88.0785
rwrist -20.1594
rhand -46.1207 -63.2647
rfingers 7.12502
rthumb -18.8617 -267.63
lclavicle -4.36332e-014 -1.90833e-014
lhumerus -36.6304 -29.5215 91.2807
lradius 48.0942
lwrist 11.8387
lhand 18.7147 10.4412
lfingers 7.12502
lthumb 43.3359 34.5673
rfemur -98.6095 -28.3076 47.7533
rtibia 113.692
rfoot 32.9014 21.5016
rtoes -6.56482
lfemur -11.8814 16.4318 -19.1537
ltibia 38.5969
lfoot -19.4881 -13.0421
ltoes 21.8945
145
root 7.40482 16.4278 -26.2353 -6.66159 17.8364 3.26574
lowerback 15.2544 -5.20253 -8.22662
upperback 4.40179 -8.14225 -1.98112
thorax -2.93957 -4.01882 3.85448
lowerneck -11.6851 -2.13335 -1.10749
upperneck 0.00666985 -2.87435 4.98096
head 2.12793 -1.28057 1.64317
rclavicle 8.02096e-014 2.54444e-014
rhumerus -51.8983 -23.0255 -66.085
rradius 88.8798
rwrist -16.5373
rhand -45.291 -64.2115
rfingers 7.12502
rthumb -18.0637 -266.607
lclavicle 8.02096e-014 2.54444e-014
lhumerus -36.0599 -30.3142 91.6901
lradius 47.4636
lwrist 10.6782
lhand 20.1387 10.8673
lfingers 7.12502
lthumb 44.6642 34.4979
rfemur -96.3483 -29.12 45.1639
rtibia 115.483
rfoot 29.0298 23.5869
rtoes -16.5515
lfemur -12.7129 17.1506 -18.8804
ltibia 38.7668
lfoot -19.8095 -10.7795
ltoes 16.9979
146
root 7.35346 16.4281 -26.2252 -6.09452 18.5351 3.01619
lowerback 14.8114 -5.25725 -8.18518
upperback 4.22965 -8.17227 -1.86205
thorax -2.86965 -4.0343 3.9212
lowerneck -11.6517 -2.35854 -1.17319
upperneck -0.071555 -3.16251 5.00611
head 2.10725 -1.42485 1.64681
rclavicle -8.17005e-014 -3.26007e-014
rhumerus -52.7654 -21.7548 -67.5371
rradius 89.7329
rwrist -13.0063
rhand -43.9671 -62.0927
rfingers 7.12502
rthumb -16.7895 -268.613
lclavicle -8.17005e-014 -3.26007e-014
lhumerus -35.6033 -31.0422 92.1999
lradius 46.9456
lwrist 9.74838
lhand 21.4411 11.2402
lfingers 7.12502
lthumb 45.8752 34.3866
rfemur -93.5941 -29.88 42.2866
rtibia 116.763
rfoot 25.5407 24.2428
rtoes -22.7296
lfemur -13.4881 18.016 -18.5895
ltibia 38.8502
lfoot -19.8205 -7.82184
ltoes 11.6637
147
root 7.30438 16.4291 -26.2127 -5.51809 19.1953 2.71995
lowerback 14.3014 -5.31704 -8.08797
upperback 4.04654 -8.19514 -1.70426
thorax -2.77747 -4.04772 3.98957
lowerneck -11.6452 -2.57221 -1.25641
upperneck -0.111115 -3.43313 4.99343
head 2.10346 -1.56067 1.64213
rclavicle -4.6615e-014 1.51076e-014
rhumerus -53.5679 -20.5611 -68.9174
rradius 90.6306
rwrist -9.55343
rhand -42.0046 -57.1986
rfingers 7.12502
rthumb -14.8996 -446.643
lclavicle -4.6615e-014 1.51076e-014
lhumerus -35.3011 -31.7262 92.8275
lradius 46.5617
lwrist 9.12072
lhand 22.6258 11.6293
lfingers 7.12502
lthumb 46.9729 34.3074
rfemur -90.388 -30.4932 39.1333
rtibia 117.517
rfoot 23.1465 23.6236
rtoes -25.5638
lfemur -14.2119 19.016 -18.2614
ltibia 38.83
lfoot -19.3527 -4.32417
ltoes 6.83901
148
root 7.25819 16.4289 -26.1973 -4.92975 19.855 2.35404
lowerback 13.712 -5.40171 -7.89959
upperback 3.84224 -8.23319 -1.51097
thorax -2.66984 -4.06953 4.03908
lowerneck -11.652 -2.7707 -1.34949
upperneck -0.0907246 -3.6837 4.95466
head 2.12113 -1.6863 1.63171
rclavicle 9.13416e-014 2.38542e-015
rhumerus -54.2894 -19.5279 -70.1575
rradius 91.5611
rwrist -6.27022
rhand -39.1233 -50.1105
rfingers 7.12502
rthumb -12.1225 -439.739
lclavicle 9.13416e-014 2.38542e-015
lhumerus -35.1947 -32.3958 93.5872
lradius 46.3354
lwrist 8.83201
lhand 23.7278 12.1169
lfingers 7.12502
lthumb 47.9906 34.3341
rfemur -86.8191 -30.868 35.7681
rtibia 117.747
rfoot 21.8659 22.2477
rtoes -26.2774
lfemur -14.884 20.1217 -17.8785
ltibia 38.6847
lfoot -18.3198 -0.538606
ltoes 3.67592
149
root 7.21528 16.4257 -26.1788 -4.33134 20.5538 1.90711
lowerback 13.037 -5.52613 -7.59699
upperback 3.60968 -8.30559 -1.29047
thorax -2.55281 -4.10872 4.05008
lowerneck -11.6549 -2.95281 -1.44069
upperneck 0.00259274 -3.91516 4.90287
head 2.16158 -1.8019 1.61769
rclavicle 2.09718e-014 1.19271e-014
rhumerus -54.9089 -18.715 -71.2082
rradius 92.5115
rwrist -3.37212
rhand -35.0082 -41.6292
rfingers 7.12502
rthumb -8.15273 -431.452
lclavicle 2.09718e-014 1.19271e-014
lhumerus -35.3191 -33.0847 94.4889
lradius 46.2877
lwrist 8.87845
lhand 24.8023 12.7922
lfingers 7.12502
lthumb 48.9796 34.5347
rfemur -82.9969 -30.9415 32.2853
rtibia 117.483
rfoot 21.41 20.4977
rtoes -25.6453
lfemur -15.5019 21.2934 -17.4328
ltibia 38.3996
lfoot -16.7753 3.23552
ltoes 3.15316
150
root 7.1758 16.4177 -26.1568 -3.72909 21.3266 1.38331
lowerback 12.2782 -5.69761 -7.17469
upperback 3.34616 -8.42524 -1.05493
thorax -2.43119 -4.17134 4.00774
lowerneck -11.6356 -3.12052 -1.51897
upperneck 0.170821 -4.13228 4.85208
head 2.22246 -1.90967 1.6025
rclavicle -3.21037e-014 -7.15625e-015
rhumerus -55.4054 -18.1515 -72.0471
rradius 93.4667
rwrist -1.15362
rhand -29.3646 -32.6043
rfingers 7.12502
rthumb -2.70384 -422.567
lclavicle -3.21037e-014 -7.15625e-015
lhumerus -35.6959 -33.8235 95.5384
lradius 46.4288
lwrist 9.2136
lhand 25.9005 13.7088
lfingers 7.12502
lthumb 49.9866 34.9385
rfemur -79.0305 -30.6942 28.7895
rtibia 116.772
rfoot 21.4653 18.5436
rtoes -24.0836
lfemur -16.0634 22.4902 -16.9293
ltibia 37.9712
lfoot -14.9076 6.70329
ltoes 5.77765
